<svg width="58" height="58" viewBox="0 0 58 58" fill="none" xmlns="http://www.w3.org/2000/svg">
<rect width="58" height="58" fill="#040537"/>
<path d="M13 39.9621V19H21.0245C22.5394 19 23.7983 19.2388 24.8014 19.7165C25.8113 20.1873 26.5653 20.8321 27.0634 21.651C27.5683 22.4698 27.8208 23.3978 27.8208 24.435C27.8208 25.288 27.657 26.0181 27.3295 26.6254C27.002 27.2259 26.5618 27.7138 26.0091 28.0891C25.4564 28.4644 24.8389 28.7339 24.1565 28.8977V29.1024C24.9003 29.1433 25.6134 29.3719 26.2957 29.7881C26.9849 30.1976 27.5479 30.7776 27.9846 31.5282C28.4213 32.2788 28.6396 33.1863 28.6396 34.2508C28.6396 35.3357 28.3769 36.3115 27.8515 37.1781C27.3261 38.0379 26.5346 38.7168 25.4769 39.215C24.4192 39.7131 23.0887 39.9621 21.4851 39.9621H13ZM16.7973 36.7892H20.8812C22.2596 36.7892 23.2524 36.5265 23.8597 36.001C24.4738 35.4688 24.7809 34.7864 24.7809 33.954C24.7809 33.333 24.6274 32.7735 24.3203 32.2753C24.0132 31.7704 23.5765 31.3746 23.0102 31.088C22.4438 30.7946 21.7683 30.6479 20.9836 30.6479H16.7973V36.7892ZM16.7973 27.9151H20.5537C21.2088 27.9151 21.799 27.7956 22.3244 27.5568C22.8498 27.3112 23.2627 26.9666 23.5629 26.523C23.87 26.0727 24.0235 25.5404 24.0235 24.9263C24.0235 24.1143 23.7369 23.4456 23.1637 22.9202C22.5974 22.3947 21.7546 22.132 20.6356 22.132H16.7973V27.9151Z" fill="white"/>
<path d="M36.6546 36.9549V22.7891H39.8685V36.9549H36.6546ZM31.1787 31.4789V28.265H45.3444V31.4789H31.1787Z" fill="white"/>
</svg>
